<svg width="274" height="38" viewBox="0 0 274 38" fill="none" xmlns="http://www.w3.org/2000/svg">
<path d="M19.4551 24.5215C19.5137 24.6035 19.5488 24.6621 19.5605 24.6973C19.5723 24.7324 19.5664 24.7617 19.543 24.7852C19.5312 24.7969 19.5078 24.8086 19.4727 24.8203C19.4375 24.832 19.4082 24.8496 19.3848 24.873C19.3262 24.9082 19.3086 24.9434 19.332 24.9785C19.3672 25.0137 19.3496 25.0781 19.2793 25.1719C19.2324 25.207 19.2266 25.248 19.2617 25.2949C19.2969 25.3301 19.3027 25.3594 19.2793 25.3828C19.1035 25.6523 18.9688 25.8223 18.875 25.8926C18.7812 25.8926 18.6992 25.9043 18.6289 25.9277C18.5938 25.9395 18.5703 25.9512 18.5586 25.9629C18.5234 25.998 18.4883 26.0449 18.4531 26.1035C18.418 26.1504 18.3887 26.1973 18.3652 26.2441C18.3418 26.2793 18.3125 26.3086 18.2773 26.332C18.2539 26.3438 18.2246 26.3262 18.1895 26.2793C18.1543 26.2207 18.1074 26.1914 18.0488 26.1914C18.002 26.1914 17.9668 26.209 17.9434 26.2441C17.9199 26.2676 17.8906 26.2969 17.8555 26.332C17.8203 26.3555 17.7969 26.3848 17.7852 26.4199C17.7852 26.4434 17.8027 26.4727 17.8379 26.5078C17.873 26.5312 17.9551 26.5605 18.084 26.5957C18.377 26.6777 18.4297 26.7598 18.2422 26.8418C18.0664 26.9121 17.7266 26.9297 17.2227 26.8945C16.7422 26.8594 16.2852 26.8301 15.8516 26.8066C15.418 26.7715 14.9844 26.748 14.5508 26.7363C14.1289 26.7129 13.6953 26.6953 13.25 26.6836C12.8047 26.6719 12.3301 26.6719 11.8262 26.6836C11.1582 26.6953 10.4492 26.7246 9.69922 26.7715C8.96094 26.8184 8.22266 26.8711 7.48438 26.9297C6.75781 26.9883 6.05469 27.0469 5.375 27.1055C4.70703 27.1758 4.10352 27.2402 3.56445 27.2988C3.02539 27.3574 2.56836 27.4102 2.19336 27.457C1.83008 27.5156 1.5957 27.5566 1.49023 27.5801C1.38477 27.6152 1.30859 27.627 1.26172 27.6152C1.22656 27.6152 1.19727 27.5859 1.17383 27.5273C1.16211 27.4688 1.15039 27.3809 1.13867 27.2637C1.12695 27.1465 1.09766 26.9883 1.05078 26.7891C1.01562 26.6719 0.962891 26.5547 0.892578 26.4375C0.833984 26.3086 0.792969 26.209 0.769531 26.1387C0.734375 25.9512 0.722656 25.8223 0.734375 25.752C0.746094 25.6699 0.816406 25.6172 0.945312 25.5938L3.10742 25.0137C2.97852 24.2051 2.88477 23.2617 2.82617 22.1836C2.7793 21.0938 2.75586 19.916 2.75586 18.6504C2.75586 17.5605 2.7793 16.4473 2.82617 15.3105C2.87305 14.1621 2.94336 13.0078 3.03711 11.8477C3.27148 8.91797 3.46484 6.67383 3.61719 5.11523C3.78125 3.54492 3.93359 2.63086 4.07422 2.37305C4.10938 2.31445 4.13867 2.26172 4.16211 2.21484C4.18555 2.15625 4.2207 2.12695 4.26758 2.12695C4.33789 2.0918 4.39062 2.09766 4.42578 2.14453C4.46094 2.19141 4.52539 2.19727 4.61914 2.16211C4.64258 2.16211 4.66016 2.15039 4.67188 2.12695C4.69531 2.0918 4.72461 2.05664 4.75977 2.02148L4.79492 2.00391C4.81836 1.98047 4.86523 1.95117 4.93555 1.91602C5.11133 1.97461 5.24023 2.02734 5.32227 2.07422C5.36914 2.09766 5.39844 2.11523 5.41016 2.12695C5.48047 2.16211 5.55078 2.22656 5.62109 2.32031C5.69141 2.40234 5.75586 2.4082 5.81445 2.33789L5.84961 2.30273C5.87305 2.2793 5.9082 2.26758 5.95508 2.26758C5.99023 2.29102 6.02539 2.31445 6.06055 2.33789C6.0957 2.36133 6.125 2.38477 6.14844 2.4082C6.18359 2.44336 6.21289 2.4668 6.23633 2.47852C6.29492 2.51367 6.34766 2.56055 6.39453 2.61914C6.44141 2.67773 6.48828 2.78906 6.53516 2.95312C6.58203 3.16406 6.58789 3.59766 6.55273 4.25391C6.5293 4.91016 6.48242 5.71875 6.41211 6.67969C6.35352 7.64063 6.28906 8.71875 6.21875 9.91406C6.14844 11.1094 6.10742 12.3516 6.0957 13.6406C6.08398 14.2383 6.06641 14.8828 6.04297 15.5742C6.01953 16.2539 5.99609 16.957 5.97266 17.6836C5.94922 18.3984 5.92578 19.1074 5.90234 19.8105C5.89062 20.5137 5.88477 21.1816 5.88477 21.8145C5.88477 22.3184 5.88477 22.793 5.88477 23.2383C5.89648 23.6719 5.93164 24.0469 5.99023 24.3633C7.26758 24.0938 8.69727 23.8535 10.2793 23.6426C11.873 23.4316 13.5723 23.3262 15.377 23.3262C16.0332 23.3262 16.5781 23.3613 17.0117 23.4316C17.457 23.4902 17.8262 23.5781 18.1191 23.6953C18.1895 23.7188 18.2891 23.7656 18.418 23.8359C18.5469 23.8945 18.6816 23.9648 18.8223 24.0469C18.9629 24.1289 19.0918 24.2109 19.209 24.293C19.3262 24.375 19.4082 24.4512 19.4551 24.5215ZM31.0215 16.6992C31.0332 17.1094 30.998 17.6133 30.916 18.2109C30.834 18.7969 30.7402 19.4297 30.6348 20.1094C30.5293 20.7773 30.4297 21.4629 30.3359 22.166C30.2422 22.8691 30.1953 23.5312 30.1953 24.1523C30.1953 24.5625 30.2246 24.9551 30.2832 25.3301C30.3418 25.6934 30.4414 26.0098 30.582 26.2793C30.6641 26.4316 30.7051 26.5664 30.7051 26.6836C30.7168 26.8008 30.7109 26.9062 30.6875 27C30.6641 27.082 30.6406 27.1523 30.6172 27.2109C30.5938 27.2812 30.5938 27.3457 30.6172 27.4043C30.6406 27.4629 30.6348 27.5273 30.5996 27.5977C30.5645 27.6797 30.5117 27.75 30.4414 27.8086C30.3711 27.8789 30.2891 27.9258 30.1953 27.9492C30.1133 27.9844 30.0371 27.9785 29.9668 27.9316C29.8379 27.8496 29.7324 27.8027 29.6504 27.791C29.5801 27.7793 29.5156 27.7793 29.457 27.791C29.4102 27.8145 29.3633 27.8379 29.3164 27.8613C29.2812 27.8848 29.2344 27.8848 29.1758 27.8613C28.9766 27.7559 28.7598 27.6328 28.5254 27.4922C28.291 27.3516 28.1387 27.1992 28.0684 27.0352C28.0215 26.9648 27.9746 26.8477 27.9277 26.6836C27.8926 26.5195 27.8574 26.3262 27.8223 26.1035C27.7988 25.8809 27.7754 25.6406 27.752 25.3828C27.7285 25.125 27.7109 24.873 27.6992 24.627C27.3125 25.3535 26.8965 25.957 26.4512 26.4375C26.0176 26.918 25.5781 27.2988 25.1328 27.5801C24.6992 27.873 24.2656 28.0781 23.832 28.1953C23.4102 28.3125 23.0234 28.3711 22.6719 28.3711C22.3086 28.3711 21.9863 28.3242 21.7051 28.2305C21.4355 28.1367 21.2246 28.0254 21.0723 27.8965C20.498 27.3223 20.0879 26.8594 19.8418 26.5078C19.6074 26.1445 19.502 25.8516 19.5254 25.6289C19.584 24.8789 19.7656 24.1875 20.0703 23.5547C20.375 22.9219 20.7559 22.3418 21.2129 21.8145C21.6699 21.2754 22.1797 20.7949 22.7422 20.373C23.3164 19.9395 23.8965 19.5586 24.4824 19.2305C25.0801 18.8906 25.666 18.6094 26.2402 18.3867C26.8145 18.1523 27.3359 17.9648 27.8047 17.8242C27.7812 17.1914 27.752 16.6406 27.7168 16.1719C27.6934 15.6914 27.6523 15.3398 27.5938 15.1172C27.418 14.3906 27.1484 13.8516 26.7852 13.5C26.4219 13.1367 25.9824 12.9551 25.4668 12.9551C25.1387 12.9551 24.8047 13.0781 24.4648 13.3242C24.1367 13.5703 23.8379 13.9043 23.5684 14.3262C23.2988 14.748 23.0762 15.2344 22.9004 15.7852C22.7363 16.3359 22.6484 16.916 22.6367 17.5254C22.6367 17.6777 22.6426 17.8242 22.6543 17.9648C22.666 18.1055 22.6836 18.252 22.707 18.4043C22.7188 18.4863 22.6895 18.5449 22.6191 18.5801C22.5605 18.6152 22.4844 18.6445 22.3906 18.668C22.2969 18.6797 22.1973 18.6914 22.0918 18.7031C21.9863 18.7148 21.8984 18.7324 21.8281 18.7559C21.7695 18.7793 21.7227 18.7969 21.6875 18.8086C21.6523 18.8086 21.6172 18.8027 21.582 18.791C21.5469 18.7676 21.5 18.7324 21.4414 18.6855C21.3945 18.6387 21.3242 18.5801 21.2305 18.5098C21.1367 18.4395 21.0371 18.3809 20.9316 18.334C20.8379 18.2871 20.75 18.2461 20.668 18.2109C20.5977 18.1758 20.5332 18.1465 20.4746 18.123C20.4277 18.0879 20.4043 18.0469 20.4043 18C20.4043 17.2734 20.5625 16.5234 20.8789 15.75C21.207 14.9766 21.6406 14.2734 22.1797 13.6406C22.7305 12.9961 23.3633 12.4688 24.0781 12.0586C24.8047 11.6484 25.5723 11.4434 26.3809 11.4434C27.0371 11.4434 27.6055 11.543 28.0859 11.7422C28.5664 11.9414 28.9766 12.1992 29.3164 12.5156C29.6562 12.832 29.9316 13.1836 30.1426 13.5703C30.3652 13.957 30.5352 14.3496 30.6523 14.748C30.7812 15.1348 30.8691 15.5039 30.916 15.8555C30.9746 16.1953 31.0098 16.4766 31.0215 16.6992ZM27.8398 19.8281C27.4883 19.957 27.1016 20.127 26.6797 20.3379C26.2578 20.5488 25.8301 20.8008 25.3965 21.0938C24.9629 21.375 24.5293 21.7031 24.0957 22.0781C23.6621 22.4531 23.2578 22.8691 22.8828 23.3262C22.4375 23.8535 22.1152 24.3223 21.916 24.7324C21.7168 25.1426 21.5938 25.4941 21.5469 25.7871C21.5 26.0684 21.5117 26.291 21.582 26.4551C21.6523 26.6191 21.7344 26.7188 21.8281 26.7539C22.1914 26.8945 22.5664 26.9121 22.9531 26.8066C23.3516 26.6895 23.7441 26.4902 24.1309 26.209C24.5293 25.916 24.9102 25.5703 25.2734 25.1719C25.6484 24.7617 26 24.3457 26.3281 23.9238C26.6562 23.4902 26.9492 23.0684 27.207 22.6582C27.4648 22.2363 27.6758 21.873 27.8398 21.5684V19.8281ZM45.1895 5.80078C45.1895 6.08203 45.1836 6.44531 45.1719 6.89062C45.1602 7.32422 45.1426 7.82227 45.1191 8.38477C45.1074 8.94727 45.0898 9.55664 45.0664 10.2129C45.043 10.8574 45.0254 11.5312 45.0137 12.2344C45.3535 12.0352 45.7578 11.8418 46.2266 11.6543C46.707 11.4551 47.2051 11.2441 47.7207 11.0215C48.248 10.7988 48.7695 10.5586 49.2852 10.3008C49.8125 10.043 50.293 9.75586 50.7266 9.43945C51.793 8.63086 52.5898 7.89844 53.1172 7.24219C53.6562 6.57422 53.9258 5.95898 53.9258 5.39648C53.9258 5.16211 53.8848 4.96289 53.8027 4.79883C53.7324 4.63477 53.6445 4.48828 53.5391 4.35938C53.2695 4.20703 52.8652 4.07812 52.3262 3.97266C51.7988 3.86719 51.1484 3.81445 50.375 3.81445C49.6484 3.81445 48.916 3.87305 48.1777 3.99023C47.4512 4.0957 46.748 4.23633 46.0684 4.41211C45.3887 4.57617 44.75 4.75781 44.1523 4.95703C43.5664 5.15625 43.0449 5.34375 42.5879 5.51953C42.1309 5.69531 41.7617 5.85352 41.4805 5.99414C41.1992 6.12305 41.0293 6.19922 40.9707 6.22266C40.9121 6.24609 40.8418 6.28711 40.7598 6.3457C40.6895 6.39258 40.6191 6.41602 40.5488 6.41602C40.3965 6.41602 40.291 6.35742 40.2324 6.24023C40.1738 6.12305 40.1562 6 40.1797 5.87109C40.0859 5.83594 40.0098 5.77148 39.9512 5.67773C39.8926 5.57227 39.8457 5.46094 39.8105 5.34375C39.7754 5.22656 39.752 5.11523 39.7402 5.00977C39.7285 4.89258 39.7227 4.80469 39.7227 4.74609C39.7227 4.51172 39.8223 4.30664 40.0215 4.13086C40.2324 3.94336 40.502 3.7793 40.8301 3.63867C40.9121 3.60352 41.0879 3.52148 41.3574 3.39258C41.6387 3.26367 41.9902 3.11719 42.4121 2.95312C42.8457 2.77734 43.332 2.5957 43.8711 2.4082C44.4102 2.2207 44.9844 2.05078 45.5938 1.89844C46.2031 1.73438 46.8301 1.59961 47.4746 1.49414C48.1191 1.38867 48.7578 1.33594 49.3906 1.33594C49.8477 1.34766 50.334 1.37695 50.8496 1.42383C51.3652 1.45898 51.875 1.54102 52.3789 1.66992C52.8828 1.79883 53.3516 1.98047 53.7852 2.21484C54.2305 2.44922 54.6055 2.76562 54.9102 3.16406C55.2383 3.42188 55.5254 3.77344 55.7715 4.21875C56.0293 4.65234 56.1582 5.17969 56.1582 5.80078C56.1582 6.23438 56.1172 6.62695 56.0352 6.97852C55.9648 7.31836 55.9004 7.55859 55.8418 7.69922C55.5371 8.46094 55.1445 9.11719 54.6641 9.66797C54.1953 10.2188 53.6855 10.6934 53.1348 11.0918C52.5957 11.4785 52.0508 11.8066 51.5 12.0762C50.9492 12.3457 50.4512 12.5684 50.0059 12.7441C50.498 12.7441 51.002 12.7676 51.5176 12.8145C52.0449 12.8613 52.5605 12.9492 53.0645 13.0781C53.5801 13.1953 54.0723 13.3711 54.541 13.6055C55.0098 13.8398 55.4434 14.1387 55.8418 14.502C56.0996 14.7832 56.334 15.0879 56.5449 15.416C56.7207 15.6973 56.8789 16.0312 57.0195 16.418C57.1719 16.793 57.248 17.2031 57.248 17.6484C57.3184 17.9297 57.3535 18.252 57.3535 18.6152C57.3535 19.0254 57.3184 19.4824 57.248 19.9863C57.1895 20.4316 57.043 20.9531 56.8086 21.5508C56.5742 22.1484 56.2109 22.7637 55.7188 23.3965C55.2266 24.0293 54.582 24.6504 53.7852 25.2598C53 25.8574 52.0156 26.3789 50.832 26.8242C50.0938 27.1172 49.4199 27.3281 48.8105 27.457C48.2012 27.5859 47.6504 27.6504 47.1582 27.6504C46.9238 27.6504 46.666 27.627 46.3848 27.5801C46.1152 27.5332 45.8574 27.4629 45.6113 27.3691C45.377 27.2871 45.1777 27.1816 45.0137 27.0527C44.8613 26.9238 44.7852 26.7715 44.7852 26.5957C44.7852 26.502 44.7559 26.4375 44.6973 26.4023C44.6387 26.3555 44.5742 26.3027 44.5039 26.2441C44.4453 26.4434 44.375 26.6016 44.293 26.7188C44.2227 26.8359 44.1465 26.9297 44.0645 27C43.9707 27.082 43.877 27.1406 43.7832 27.1758C43.7363 27.1758 43.6953 27.1641 43.6602 27.1406C43.5898 27.1289 43.5371 27.082 43.502 27C43.4551 27.0938 43.3906 27.1875 43.3086 27.2812C43.2383 27.3867 43.168 27.4395 43.0977 27.4395C43.0625 27.4395 43.0098 27.4336 42.9395 27.4219C42.8809 27.4219 42.8164 27.3457 42.7461 27.1934C42.6875 27.041 42.623 26.7832 42.5527 26.4199C42.4941 26.0449 42.4355 25.4883 42.377 24.75C42.3301 24 42.2891 23.0332 42.2539 21.8496C42.2188 20.666 42.2012 19.1895 42.2012 17.4199C42.2012 16.7051 42.2012 15.9551 42.2012 15.1699C42.2012 14.373 42.207 13.5938 42.2188 12.832C42.2305 12.0586 42.248 11.3203 42.2715 10.6172C42.3066 9.90234 42.3477 9.25781 42.3945 8.68359C42.4531 8.09766 42.5234 7.61133 42.6055 7.22461C42.6875 6.82617 42.793 6.55664 42.9219 6.41602C43.0156 6.29883 43.1797 6.1875 43.4141 6.08203C43.6602 5.97656 43.9004 5.88281 44.1348 5.80078C44.3691 5.70703 44.5742 5.63672 44.75 5.58984C44.9258 5.53125 45.002 5.49023 44.9785 5.4668C45.0371 5.49023 45.084 5.53125 45.1191 5.58984C45.166 5.63672 45.1895 5.70703 45.1895 5.80078ZM45.8047 14.8711C45.7227 14.8711 45.5996 14.8242 45.4355 14.7305C45.2832 14.6367 45.1133 14.5254 44.9258 14.3965C44.8906 15.3809 44.8555 16.3652 44.8203 17.3496C44.7852 18.334 44.75 19.2715 44.7148 20.1621C44.6797 21.041 44.6504 21.8555 44.627 22.6055C44.6152 23.3555 44.6094 23.9824 44.6094 24.4863C44.75 24.2637 44.9023 24.0527 45.0664 23.8535C45.2305 23.6426 45.3887 23.4609 45.541 23.3086C45.7051 23.1445 45.8516 23.0156 45.9805 22.9219C46.1211 22.8281 46.2266 22.7812 46.2969 22.7812C46.3203 22.7812 46.3438 22.7871 46.3672 22.7988C46.3906 22.8105 46.4434 22.8574 46.5254 22.9395C46.5488 22.9395 46.5723 22.9336 46.5957 22.9219C46.6191 22.9102 46.6426 22.9043 46.666 22.9043C46.7598 22.9043 46.8301 22.9453 46.877 23.0273C46.9238 23.1094 46.9473 23.2676 46.9473 23.502C46.9473 23.6309 46.9121 23.7422 46.8418 23.8359C46.7715 23.9297 46.6895 24.0176 46.5957 24.0996C46.5137 24.1699 46.4258 24.2402 46.332 24.3105C46.25 24.3809 46.1914 24.4512 46.1562 24.5215C46.25 24.5449 46.3438 24.5625 46.4375 24.5742C46.5312 24.5859 46.6777 24.5918 46.877 24.5918C46.9824 24.5801 47.1934 24.5625 47.5098 24.5391C47.8379 24.5039 48.2539 24.416 48.7578 24.2754C49.2617 24.123 49.8418 23.8887 50.498 23.5723C51.166 23.2559 51.8926 22.8047 52.6777 22.2188C53.3457 21.7148 53.8848 21.1992 54.2949 20.6719C54.7051 20.1445 55.0156 19.6523 55.2266 19.1953C55.4492 18.7266 55.5957 18.3164 55.666 17.9648C55.7363 17.6133 55.7715 17.3613 55.7715 17.209C55.7246 16.7754 55.5371 16.3828 55.209 16.0312C54.8926 15.668 54.4648 15.3574 53.9258 15.0996C53.3984 14.8418 52.7773 14.6426 52.0625 14.502C51.3477 14.3613 50.5801 14.291 49.7598 14.291C49.209 14.291 48.7227 14.3203 48.3008 14.3789C47.8789 14.4375 47.5039 14.5078 47.1758 14.5898C46.8594 14.6602 46.5898 14.7246 46.3672 14.7832C46.1445 14.8418 45.957 14.8711 45.8047 14.8711ZM72.2246 19.582C72.2246 20.8125 72.043 21.9199 71.6797 22.9043C71.3281 23.8887 70.8418 24.7266 70.2207 25.418C69.6113 26.1094 68.9023 26.6426 68.0938 27.0176C67.2852 27.3926 66.4297 27.5801 65.5273 27.5801C65.1523 27.5801 64.7422 27.5332 64.2969 27.4395C63.8516 27.3574 63.4062 27.2168 62.9609 27.0176C62.5156 26.8184 62.082 26.5547 61.6602 26.2266C61.2383 25.8984 60.8633 25.4941 60.5352 25.0137C60.207 24.5332 59.9434 23.9707 59.7441 23.3262C59.5566 22.6816 59.4688 21.9375 59.4805 21.0938C59.4805 20.1328 59.5977 19.2598 59.832 18.4746C60.0664 17.6777 60.3652 16.9688 60.7285 16.3477C61.1035 15.7148 61.5254 15.1699 61.9941 14.7129C62.4629 14.2559 62.9316 13.875 63.4004 13.5703C63.8691 13.2539 64.3203 13.0195 64.7539 12.8672C65.1875 12.7148 65.5625 12.627 65.8789 12.6035C66.043 12.5918 66.1133 12.6094 66.0898 12.6562C66.0781 12.7031 66.0371 12.7559 65.9668 12.8145C65.8965 12.873 65.832 12.9316 65.7734 12.9902C65.7266 13.0488 65.75 13.084 65.8438 13.0957C65.9258 13.1191 65.9902 13.1426 66.0371 13.166C66.0957 13.1895 66.1543 13.2188 66.2129 13.2539L66.3535 13.0957C66.4355 13.0371 66.5117 13.0078 66.582 13.0078C66.6641 13.0078 66.7344 13.0195 66.793 13.043C66.8516 13.0547 66.8984 13.0605 66.9336 13.0605C66.9688 13.0605 66.9922 13.0254 67.0039 12.9551C67.0273 12.8262 67.0684 12.7559 67.127 12.7441C67.1973 12.7207 67.3496 12.709 67.584 12.709C67.7246 12.709 67.9355 12.75 68.2168 12.832C68.5098 12.9141 68.8262 13.0547 69.166 13.2539C69.5176 13.4531 69.8691 13.7227 70.2207 14.0625C70.584 14.3906 70.9121 14.8125 71.2051 15.3281C71.5098 15.832 71.7559 16.4355 71.9434 17.1387C72.1309 17.8418 72.2246 18.6562 72.2246 19.582ZM65.8789 14.4316C65.4688 14.6777 65.0645 15.0117 64.666 15.4336C64.2676 15.8555 63.9043 16.3418 63.5762 16.8926C63.2598 17.4434 63.002 18.0586 62.8027 18.7383C62.6035 19.418 62.5039 20.1328 62.5039 20.8828C62.5039 21.6914 62.5742 22.4238 62.7148 23.0801C62.8672 23.7363 63.084 24.2988 63.3652 24.7676C63.6465 25.2246 63.9863 25.582 64.3848 25.8398C64.7949 26.0859 65.2578 26.209 65.7734 26.209C66.2305 26.209 66.6816 26.0801 67.127 25.8223C67.584 25.5645 67.9883 25.1777 68.3398 24.6621C68.6914 24.1465 68.9727 23.5078 69.1836 22.7461C69.4062 21.9844 69.5176 21.0996 69.5176 20.0918C69.5176 19.0723 69.3828 18.2168 69.1133 17.5254C68.8438 16.834 68.5391 16.2773 68.1992 15.8555C67.8711 15.4219 67.5547 15.1172 67.25 14.9414C66.9453 14.7539 66.7578 14.6602 66.6875 14.6602C66.5234 14.6602 66.3945 14.6602 66.3008 14.6602C66.2188 14.6602 66.0781 14.584 65.8789 14.4316ZM79.6426 6.32812C79.6426 6.39844 79.6309 6.58594 79.6074 6.89062C79.584 7.18359 79.5488 7.57617 79.502 8.06836C79.4668 8.56055 79.4199 9.13477 79.3613 9.79102C79.3027 10.4355 79.2441 11.1328 79.1855 11.8828C79.9238 11.7891 80.6211 11.7188 81.2773 11.6719C81.9453 11.6133 82.5078 11.584 82.9648 11.584C83.1172 11.584 83.252 11.6133 83.3691 11.6719C83.4863 11.7305 83.5801 11.8008 83.6504 11.8828C83.7324 11.9531 83.7969 12.0352 83.8438 12.1289C83.8906 12.2109 83.9199 12.2812 83.9316 12.3398C83.9316 12.3984 83.9375 12.457 83.9492 12.5156C83.9609 12.5625 83.9668 12.6152 83.9668 12.6738C83.9668 12.9082 83.8613 13.1426 83.6504 13.377C83.4512 13.6113 83.1465 13.7578 82.7363 13.8164L78.9922 14.2207C78.9336 15.0645 78.8809 15.9316 78.834 16.8223C78.7871 17.7129 78.7402 18.6035 78.6934 19.4941C78.6582 20.373 78.6289 21.2402 78.6055 22.0957C78.582 22.9512 78.5703 23.7598 78.5703 24.5215C78.5703 25.0137 78.582 25.4121 78.6055 25.7168C78.6289 26.0215 78.6406 26.2207 78.6406 26.3145C78.6406 26.5137 78.5996 26.7129 78.5176 26.9121C78.4473 27.0996 78.3594 27.2695 78.2539 27.4219C78.1602 27.5859 78.0547 27.7148 77.9375 27.8086C77.832 27.9141 77.7441 27.9668 77.6738 27.9668C77.252 27.9668 76.918 27.832 76.6719 27.5625C76.4258 27.3047 76.2383 26.9531 76.1094 26.5078C75.9922 26.0625 75.916 25.5527 75.8809 24.9785C75.8457 24.4043 75.8281 23.8066 75.8281 23.1855C75.8281 21.7207 75.8691 20.2559 75.9512 18.791C76.0332 17.3145 76.1504 15.8965 76.3027 14.5371L74.1055 14.8008C74.0703 14.8008 74.0352 14.8066 74 14.8184C73.9648 14.8301 73.9238 14.8359 73.877 14.8359C73.6543 14.8359 73.4785 14.7832 73.3496 14.6777C73.209 14.5723 73.1035 14.4492 73.0332 14.3086C72.9629 14.168 72.9219 14.0273 72.9102 13.8867C72.8867 13.7344 72.875 13.6172 72.875 13.5352C72.875 13.3711 72.8984 13.2188 72.9453 13.0781C72.9922 12.9375 73.0801 12.8496 73.209 12.8145C73.4551 12.7207 73.8828 12.6211 74.4922 12.5156C75.1133 12.3984 75.8105 12.2812 76.584 12.1641C76.7129 11.2148 76.8418 10.3477 76.9707 9.5625C77.1113 8.76563 77.2461 8.08008 77.375 7.50586C77.5039 6.91992 77.6211 6.46875 77.7266 6.15234C77.8438 5.82422 77.9434 5.66016 78.0254 5.66016C78.0488 5.66016 78.0781 5.66602 78.1133 5.67773C78.1484 5.68945 78.1777 5.69531 78.2012 5.69531C78.2715 5.69531 78.3242 5.66016 78.3594 5.58984C78.4062 5.50781 78.4883 5.4668 78.6055 5.4668C78.7109 5.4668 78.8223 5.50195 78.9395 5.57227C79.0684 5.63086 79.1797 5.70703 79.2734 5.80078C79.3789 5.89453 79.4668 5.99414 79.5371 6.09961C79.6074 6.19336 79.6426 6.26953 79.6426 6.32812ZM88.3965 6.32812C88.3965 6.39844 88.3848 6.58594 88.3613 6.89062C88.3379 7.18359 88.3027 7.57617 88.2559 8.06836C88.2207 8.56055 88.1738 9.13477 88.1152 9.79102C88.0566 10.4355 87.998 11.1328 87.9395 11.8828C88.6777 11.7891 89.375 11.7188 90.0312 11.6719C90.6992 11.6133 91.2617 11.584 91.7188 11.584C91.8711 11.584 92.0059 11.6133 92.123 11.6719C92.2402 11.7305 92.334 11.8008 92.4043 11.8828C92.4863 11.9531 92.5508 12.0352 92.5977 12.1289C92.6445 12.2109 92.6738 12.2812 92.6855 12.3398C92.6855 12.3984 92.6914 12.457 92.7031 12.5156C92.7148 12.5625 92.7207 12.6152 92.7207 12.6738C92.7207 12.9082 92.6152 13.1426 92.4043 13.377C92.2051 13.6113 91.9004 13.7578 91.4902 13.8164L87.7461 14.2207C87.6875 15.0645 87.6348 15.9316 87.5879 16.8223C87.541 17.7129 87.4941 18.6035 87.4473 19.4941C87.4121 20.373 87.3828 21.2402 87.3594 22.0957C87.3359 22.9512 87.3242 23.7598 87.3242 24.5215C87.3242 25.0137 87.3359 25.4121 87.3594 25.7168C87.3828 26.0215 87.3945 26.2207 87.3945 26.3145C87.3945 26.5137 87.3535 26.7129 87.2715 26.9121C87.2012 27.0996 87.1133 27.2695 87.0078 27.4219C86.9141 27.5859 86.8086 27.7148 86.6914 27.8086C86.5859 27.9141 86.498 27.9668 86.4277 27.9668C86.0059 27.9668 85.6719 27.832 85.4258 27.5625C85.1797 27.3047 84.9922 26.9531 84.8633 26.5078C84.7461 26.0625 84.6699 25.5527 84.6348 24.9785C84.5996 24.4043 84.582 23.8066 84.582 23.1855C84.582 21.7207 84.623 20.2559 84.7051 18.791C84.7871 17.3145 84.9043 15.8965 85.0566 14.5371L82.8594 14.8008C82.8242 14.8008 82.7891 14.8066 82.7539 14.8184C82.7188 14.8301 82.6777 14.8359 82.6309 14.8359C82.4082 14.8359 82.2324 14.7832 82.1035 14.6777C81.9629 14.5723 81.8574 14.4492 81.7871 14.3086C81.7168 14.168 81.6758 14.0273 81.6641 13.8867C81.6406 13.7344 81.6289 13.6172 81.6289 13.5352C81.6289 13.3711 81.6523 13.2188 81.6992 13.0781C81.7461 12.9375 81.834 12.8496 81.9629 12.8145C82.209 12.7207 82.6367 12.6211 83.2461 12.5156C83.8672 12.3984 84.5645 12.2812 85.3379 12.1641C85.4668 11.2148 85.5957 10.3477 85.7246 9.5625C85.8652 8.76563 86 8.08008 86.1289 7.50586C86.2578 6.91992 86.375 6.46875 86.4805 6.15234C86.5977 5.82422 86.6973 5.66016 86.7793 5.66016C86.8027 5.66016 86.832 5.66602 86.8672 5.67773C86.9023 5.68945 86.9316 5.69531 86.9551 5.69531C87.0254 5.69531 87.0781 5.66016 87.1133 5.58984C87.1602 5.50781 87.2422 5.4668 87.3594 5.4668C87.4648 5.4668 87.5762 5.50195 87.6934 5.57227C87.8223 5.63086 87.9336 5.70703 88.0273 5.80078C88.1328 5.89453 88.2207 5.99414 88.291 6.09961C88.3613 6.19336 88.3965 6.26953 88.3965 6.32812ZM103.742 20.584C103.742 20.7129 103.748 20.8652 103.76 21.041C103.771 21.2168 103.777 21.416 103.777 21.6387C103.777 21.9199 103.736 22.2715 103.654 22.6934C103.572 23.1035 103.438 23.5371 103.25 23.9941C103.074 24.4512 102.834 24.9082 102.529 25.3652C102.225 25.8223 101.85 26.2324 101.404 26.5957C100.959 26.959 100.432 27.252 99.8223 27.4746C99.2246 27.709 98.5391 27.8262 97.7656 27.8262C97.0742 27.8262 96.3652 27.6914 95.6387 27.4219C94.9238 27.1641 94.2676 26.7598 93.6699 26.209C93.084 25.6465 92.5977 24.9375 92.2109 24.082C91.8359 23.2148 91.6484 22.1836 91.6484 20.9883C91.6484 20.2383 91.7422 19.5 91.9297 18.7734C92.1289 18.0469 92.3867 17.3613 92.7031 16.7168C93.0312 16.0723 93.4121 15.4805 93.8457 14.9414C94.291 14.3906 94.7539 13.9219 95.2344 13.5352C95.7266 13.1367 96.2305 12.8262 96.7461 12.6035C97.2734 12.3809 97.7832 12.2695 98.2754 12.2695C99.1309 12.2695 99.834 12.4043 100.385 12.6738C100.947 12.9434 101.393 13.2773 101.721 13.6758C102.049 14.0742 102.277 14.502 102.406 14.959C102.547 15.4043 102.617 15.8086 102.617 16.1719C102.617 16.5234 102.529 16.9277 102.354 17.3848C102.189 17.8301 101.914 18.2578 101.527 18.668C101.141 19.0664 100.637 19.4062 100.016 19.6875C99.3945 19.957 98.6328 20.0918 97.7305 20.0918C97.25 20.0918 96.8164 20.0273 96.4297 19.8984C96.0547 19.7578 95.7207 19.5879 95.4277 19.3887C95.1348 19.1777 94.8828 18.9551 94.6719 18.7207C94.4727 18.4746 94.3027 18.2461 94.1621 18.0352C93.9512 18.7617 93.8457 19.6113 93.8457 20.584C93.8457 21.252 93.9395 21.8555 94.127 22.3945C94.3262 22.9219 94.5957 23.373 94.9355 23.748C95.2754 24.123 95.6797 24.4102 96.1484 24.6094C96.6172 24.8086 97.1328 24.9082 97.6953 24.9082C98.3984 24.9082 99.0137 24.791 99.541 24.5566C100.068 24.3105 100.525 24.0059 100.912 23.6426C101.311 23.2793 101.65 22.8867 101.932 22.4648C102.225 22.0312 102.477 21.6387 102.688 21.2871C102.898 20.9238 103.08 20.625 103.232 20.3906C103.396 20.1562 103.555 20.0449 103.707 20.0566C103.777 20.0566 103.812 20.1152 103.812 20.2324C103.812 20.291 103.807 20.3496 103.795 20.4082C103.783 20.4668 103.766 20.5254 103.742 20.584ZM98.4512 14.0449C98.2402 14.0449 97.9648 14.0918 97.625 14.1855C97.2969 14.2676 96.9453 14.4199 96.5703 14.6426C96.207 14.8652 95.8438 15.1699 95.4805 15.5566C95.1172 15.9316 94.8008 16.4121 94.5312 16.998C94.6953 16.916 94.8359 16.8457 94.9531 16.7871C95.082 16.7285 95.1699 16.6992 95.2168 16.6992C95.2402 16.6992 95.2754 16.7227 95.3223 16.7695C95.5918 17.2266 95.9258 17.5547 96.3242 17.7539C96.7344 17.9414 97.1914 18.0352 97.6953 18.0352C98.0938 18.0352 98.4336 17.9707 98.7148 17.8418C99.0078 17.7012 99.248 17.5254 99.4355 17.3145C99.623 17.1035 99.7578 16.875 99.8398 16.6289C99.9219 16.3711 99.9629 16.1191 99.9629 15.873C99.9629 15.3457 99.8281 14.9121 99.5586 14.5723C99.2891 14.2207 98.9199 14.0449 98.4512 14.0449ZM112.338 26.209C113.041 26.209 113.738 26.2734 114.43 26.4023C115.133 26.5312 115.766 26.748 116.328 27.0527C116.891 27.3574 117.342 27.7559 117.682 28.248C118.033 28.752 118.209 29.3789 118.209 30.1289C118.209 30.6797 118.08 31.2363 117.822 31.7988C117.564 32.3613 117.207 32.9062 116.75 33.4336C116.293 33.9609 115.754 34.459 115.133 34.9277C114.523 35.3965 113.861 35.8008 113.146 36.1406C112.432 36.4922 111.688 36.7676 110.914 36.9668C110.141 37.166 109.367 37.2656 108.594 37.2656C107.961 37.2656 107.363 37.1953 106.801 37.0547C106.25 36.9258 105.764 36.7266 105.342 36.457C104.932 36.1875 104.604 35.8477 104.357 35.4375C104.111 35.0391 103.988 34.5645 103.988 34.0137C103.988 33.4746 104.094 32.9648 104.305 32.4844C104.516 32.0156 104.791 31.582 105.131 31.1836C105.482 30.7852 105.881 30.4219 106.326 30.0938C106.771 29.7773 107.229 29.5078 107.697 29.2852C108.178 29.0742 108.646 28.9102 109.104 28.793C109.561 28.6758 109.977 28.6172 110.352 28.6172C110.551 28.6406 110.686 28.6641 110.756 28.6875C110.826 28.7227 110.861 28.7578 110.861 28.793C110.861 28.8281 110.844 28.8691 110.809 28.916C110.773 28.9746 110.756 29.0215 110.756 29.0566C110.779 29.127 110.803 29.209 110.826 29.3027C110.85 29.3965 110.861 29.4902 110.861 29.584C110.861 29.7012 110.838 29.8008 110.791 29.8828C110.756 29.9766 110.674 30.0352 110.545 30.0586C110.053 30.1758 109.508 30.375 108.91 30.6562C108.324 30.9375 107.768 31.2656 107.24 31.6406C106.725 32.0273 106.291 32.4375 105.939 32.8711C105.588 33.3164 105.406 33.7617 105.395 34.207C105.395 34.418 105.494 34.5703 105.693 34.6641C105.893 34.7578 106.174 34.8047 106.537 34.8047C106.982 34.8047 107.516 34.7402 108.137 34.6113C108.758 34.4824 109.402 34.2949 110.07 34.0488C110.738 33.8145 111.395 33.5215 112.039 33.1699C112.695 32.8301 113.281 32.4434 113.797 32.0098C114.324 31.5762 114.746 31.1074 115.062 30.6035C115.379 30.0996 115.537 29.5605 115.537 28.9863C115.537 28.7051 115.479 28.4824 115.361 28.3184C115.256 28.166 115.127 28.0488 114.975 27.9668C114.834 27.8848 114.682 27.832 114.518 27.8086C114.365 27.7969 114.236 27.791 114.131 27.791C113.299 27.791 112.449 27.8379 111.582 27.9316C110.715 28.0371 109.924 28.1426 109.209 28.248C108.506 28.3652 107.926 28.4707 107.469 28.5645C107.012 28.6699 106.771 28.7227 106.748 28.7227C106.49 28.7227 106.25 28.6699 106.027 28.5645C105.816 28.459 105.635 28.3242 105.482 28.1602C105.33 27.9961 105.207 27.8027 105.113 27.5801C105.031 27.3691 104.99 27.1523 104.99 26.9297C104.99 26.7539 105.096 26.502 105.307 26.1738C105.518 25.834 105.793 25.4707 106.133 25.084C106.473 24.6973 106.859 24.3164 107.293 23.9414C107.738 23.5664 108.184 23.2559 108.629 23.0098C108.23 22.7988 107.873 22.541 107.557 22.2363C107.24 21.9316 106.971 21.6035 106.748 21.252C106.537 20.9004 106.373 20.5312 106.256 20.1445C106.139 19.7461 106.08 19.3418 106.08 18.9316C106.08 18.1348 106.191 17.4316 106.414 16.8223C106.637 16.2012 106.93 15.6621 107.293 15.2051C107.656 14.748 108.061 14.3672 108.506 14.0625C108.963 13.7578 109.414 13.5117 109.859 13.3242C110.305 13.1367 110.727 13.0078 111.125 12.9375C111.523 12.8555 111.857 12.8145 112.127 12.8145C112.256 12.8145 112.361 12.8203 112.443 12.832C112.537 12.8438 112.619 12.8613 112.689 12.8848C112.982 12.416 113.316 11.918 113.691 11.3906C114.078 10.8516 114.471 10.3242 114.869 9.80859C115.279 9.28125 115.684 8.7832 116.082 8.31445C116.492 7.83398 116.861 7.41211 117.189 7.04883C117.529 6.67383 117.816 6.38086 118.051 6.16992C118.285 5.94727 118.443 5.83594 118.525 5.83594C118.631 5.83594 118.76 5.90625 118.912 6.04688C119.064 6.17578 119.211 6.32812 119.352 6.50391C119.492 6.66797 119.609 6.83203 119.703 6.99609C119.809 7.14844 119.861 7.25391 119.861 7.3125C119.861 7.37109 119.838 7.42383 119.791 7.4707C119.744 7.51758 119.721 7.55859 119.721 7.59375C119.721 7.65234 119.75 7.70508 119.809 7.75195C119.879 7.78711 119.979 7.83398 120.107 7.89258C120.131 7.91602 120.148 7.92773 120.16 7.92773C120.172 7.92773 120.178 7.93945 120.178 7.96289C120.178 8.00977 120.102 8.0918 119.949 8.20898C119.797 8.31445 119.551 8.50781 119.211 8.78906C118.871 9.05859 118.432 9.43945 117.893 9.93164C117.354 10.4238 116.691 11.0742 115.906 11.8828C115.719 12.0586 115.525 12.2754 115.326 12.5332C115.127 12.791 114.91 13.0664 114.676 13.3594C114.98 13.5234 115.297 13.7402 115.625 14.0098C115.953 14.2793 116.246 14.5957 116.504 14.959C116.773 15.3105 116.99 15.7148 117.154 16.1719C117.33 16.6289 117.418 17.1211 117.418 17.6484C117.418 18.7734 117.23 19.7168 116.855 20.4785C116.48 21.2402 115.994 21.8555 115.396 22.3242C114.799 22.7812 114.131 23.1094 113.393 23.3086C112.654 23.5078 111.928 23.6074 111.213 23.6074C111.037 23.6074 110.867 23.6016 110.703 23.5898C110.551 23.5781 110.398 23.5605 110.246 23.5371C109.977 23.7129 109.672 23.9297 109.332 24.1875C108.992 24.4453 108.658 24.7266 108.33 25.0312C108.002 25.3359 107.697 25.6465 107.416 25.9629C107.146 26.2793 106.941 26.5781 106.801 26.8594C107.27 26.8477 107.721 26.8125 108.154 26.7539C108.588 26.6836 109.021 26.6074 109.455 26.5254C109.9 26.4434 110.357 26.373 110.826 26.3145C111.295 26.2441 111.799 26.209 112.338 26.209ZM111.793 14.9766C111.793 14.7422 111.928 14.3438 112.197 13.7812C111.646 13.957 111.154 14.2207 110.721 14.5723C110.287 14.9238 109.918 15.3223 109.613 15.7676C109.309 16.2129 109.074 16.6934 108.91 17.209C108.746 17.7129 108.664 18.2168 108.664 18.7207C108.664 19.084 108.705 19.4355 108.787 19.7754C108.881 20.1035 109.021 20.4023 109.209 20.6719C109.396 20.9297 109.637 21.1406 109.93 21.3047C110.234 21.457 110.604 21.5332 111.037 21.5332C111.506 21.5332 111.922 21.4512 112.285 21.2871C112.66 21.1113 112.988 20.8887 113.27 20.6191C113.551 20.3379 113.785 20.0273 113.973 19.6875C114.172 19.3477 114.33 19.0137 114.447 18.6855C114.576 18.3457 114.67 18.0293 114.729 17.7363C114.787 17.4434 114.816 17.209 114.816 17.0332C114.816 16.3301 114.699 15.7852 114.465 15.3984C114.242 15 113.979 14.7012 113.674 14.502C113.51 14.7012 113.34 14.8945 113.164 15.082C112.988 15.2578 112.807 15.4395 112.619 15.627C112.596 15.6504 112.561 15.6621 112.514 15.6621C112.479 15.6621 112.449 15.6445 112.426 15.6094C112.402 15.5742 112.361 15.5566 112.303 15.5566C112.268 15.5566 112.232 15.5742 112.197 15.6094C112.162 15.6445 112.115 15.6621 112.057 15.6621C111.975 15.6621 111.91 15.6152 111.863 15.5215C111.816 15.4277 111.793 15.2461 111.793 14.9766ZM130.725 16.6992C130.736 17.1094 130.701 17.6133 130.619 18.2109C130.537 18.7969 130.443 19.4297 130.338 20.1094C130.232 20.7773 130.133 21.4629 130.039 22.166C129.945 22.8691 129.898 23.5312 129.898 24.1523C129.898 24.5625 129.928 24.9551 129.986 25.3301C130.045 25.6934 130.145 26.0098 130.285 26.2793C130.367 26.4316 130.408 26.5664 130.408 26.6836C130.42 26.8008 130.414 26.9062 130.391 27C130.367 27.082 130.344 27.1523 130.32 27.2109C130.297 27.2812 130.297 27.3457 130.32 27.4043C130.344 27.4629 130.338 27.5273 130.303 27.5977C130.268 27.6797 130.215 27.75 130.145 27.8086C130.074 27.8789 129.992 27.9258 129.898 27.9492C129.816 27.9844 129.74 27.9785 129.67 27.9316C129.541 27.8496 129.436 27.8027 129.354 27.791C129.283 27.7793 129.219 27.7793 129.16 27.791C129.113 27.8145 129.066 27.8379 129.02 27.8613C128.984 27.8848 128.938 27.8848 128.879 27.8613C128.68 27.7559 128.463 27.6328 128.229 27.4922C127.994 27.3516 127.842 27.1992 127.771 27.0352C127.725 26.9648 127.678 26.8477 127.631 26.6836C127.596 26.5195 127.561 26.3262 127.525 26.1035C127.502 25.8809 127.479 25.6406 127.455 25.3828C127.432 25.125 127.414 24.873 127.402 24.627C127.016 25.3535 126.6 25.957 126.154 26.4375C125.721 26.918 125.281 27.2988 124.836 27.5801C124.402 27.873 123.969 28.0781 123.535 28.1953C123.113 28.3125 122.727 28.3711 122.375 28.3711C122.012 28.3711 121.689 28.3242 121.408 28.2305C121.139 28.1367 120.928 28.0254 120.775 27.8965C120.201 27.3223 119.791 26.8594 119.545 26.5078C119.311 26.1445 119.205 25.8516 119.229 25.6289C119.287 24.8789 119.469 24.1875 119.773 23.5547C120.078 22.9219 120.459 22.3418 120.916 21.8145C121.373 21.2754 121.883 20.7949 122.445 20.373C123.02 19.9395 123.6 19.5586 124.186 19.2305C124.783 18.8906 125.369 18.6094 125.943 18.3867C126.518 18.1523 127.039 17.9648 127.508 17.8242C127.484 17.1914 127.455 16.6406 127.42 16.1719C127.396 15.6914 127.355 15.3398 127.297 15.1172C127.121 14.3906 126.852 13.8516 126.488 13.5C126.125 13.1367 125.686 12.9551 125.17 12.9551C124.842 12.9551 124.508 13.0781 124.168 13.3242C123.84 13.5703 123.541 13.9043 123.271 14.3262C123.002 14.748 122.779 15.2344 122.604 15.7852C122.439 16.3359 122.352 16.916 122.34 17.5254C122.34 17.6777 122.346 17.8242 122.357 17.9648C122.369 18.1055 122.387 18.252 122.41 18.4043C122.422 18.4863 122.393 18.5449 122.322 18.5801C122.264 18.6152 122.188 18.6445 122.094 18.668C122 18.6797 121.9 18.6914 121.795 18.7031C121.689 18.7148 121.602 18.7324 121.531 18.7559C121.473 18.7793 121.426 18.7969 121.391 18.8086C121.355 18.8086 121.32 18.8027 121.285 18.791C121.25 18.7676 121.203 18.7324 121.145 18.6855C121.098 18.6387 121.027 18.5801 120.934 18.5098C120.84 18.4395 120.74 18.3809 120.635 18.334C120.541 18.2871 120.453 18.2461 120.371 18.2109C120.301 18.1758 120.236 18.1465 120.178 18.123C120.131 18.0879 120.107 18.0469 120.107 18C120.107 17.2734 120.266 16.5234 120.582 15.75C120.91 14.9766 121.344 14.2734 121.883 13.6406C122.434 12.9961 123.066 12.4688 123.781 12.0586C124.508 11.6484 125.275 11.4434 126.084 11.4434C126.74 11.4434 127.309 11.543 127.789 11.7422C128.27 11.9414 128.68 12.1992 129.02 12.5156C129.359 12.832 129.635 13.1836 129.846 13.5703C130.068 13.957 130.238 14.3496 130.355 14.748C130.484 15.1348 130.572 15.5039 130.619 15.8555C130.678 16.1953 130.713 16.4766 130.725 16.6992ZM127.543 19.8281C127.191 19.957 126.805 20.127 126.383 20.3379C125.961 20.5488 125.533 20.8008 125.1 21.0938C124.666 21.375 124.232 21.7031 123.799 22.0781C123.365 22.4531 122.961 22.8691 122.586 23.3262C122.141 23.8535 121.818 24.3223 121.619 24.7324C121.42 25.1426 121.297 25.4941 121.25 25.7871C121.203 26.0684 121.215 26.291 121.285 26.4551C121.355 26.6191 121.438 26.7188 121.531 26.7539C121.895 26.8945 122.27 26.9121 122.656 26.8066C123.055 26.6895 123.447 26.4902 123.834 26.209C124.232 25.916 124.613 25.5703 124.977 25.1719C125.352 24.7617 125.703 24.3457 126.031 23.9238C126.359 23.4902 126.652 23.0684 126.91 22.6582C127.168 22.2363 127.379 21.873 127.543 21.5684V19.8281Z" fill="#F94CC9"/>
<path d="M142.171 16.092V12.708C142.171 9.708 142.411 7.788 142.891 6.948C143.371 6.108 144.391 4.968 145.951 3.528C147.535 2.088 148.711 1.368 149.479 1.368C150.799 1.368 152.311 2.136 154.015 3.672C155.719 5.184 156.799 6.852 157.255 8.676L153.259 11.448C152.875 10.152 152.263 8.964 151.423 7.884C150.583 6.78 149.995 6.228 149.659 6.228C149.059 6.228 148.375 6.816 147.607 7.992C147.295 8.448 147.139 10.02 147.139 12.708V16.092C147.139 18.852 147.295 20.424 147.607 20.808C148.375 21.984 149.059 22.572 149.659 22.572C149.995 22.572 150.583 22.104 151.423 21.168C152.263 20.208 152.875 19.152 153.259 18L157.255 20.808C156.799 22.464 155.719 23.988 154.015 25.38C152.311 26.748 150.799 27.432 149.479 27.432C148.711 27.432 147.535 26.712 145.951 25.272C144.391 23.832 143.371 22.692 142.891 21.852C142.411 21.012 142.171 19.092 142.171 16.092ZM165.59 27H160.838V14.58C160.838 13.356 160.682 12.408 160.37 11.736C160.082 11.04 159.638 10.44 159.038 9.936L162.998 7.164C163.862 7.884 164.522 8.724 164.978 9.684C166.754 8.004 168.002 7.164 168.722 7.164C169.202 7.164 169.934 7.608 170.918 8.496C171.902 9.384 172.478 10.356 172.646 11.412L168.794 14.184C168.77 13.608 168.626 13.044 168.362 12.492C168.122 11.94 167.906 11.664 167.714 11.664C167.306 11.664 166.598 12.168 165.59 13.176V27ZM186.823 17.244V18.54H178.111C178.111 19.98 178.291 21.12 178.651 21.96C178.771 22.248 178.987 22.548 179.299 22.86C179.611 23.148 179.935 23.292 180.271 23.292C180.607 23.292 181.027 23.004 181.531 22.428C182.035 21.852 182.431 21.156 182.719 20.34L186.427 22.968C185.779 24.168 184.783 25.212 183.439 26.1C182.119 26.988 181.051 27.432 180.235 27.432C179.419 27.432 178.231 26.796 176.671 25.524C175.135 24.252 174.199 23.268 173.863 22.572C173.527 21.852 173.359 20.1 173.359 17.316C173.359 14.508 173.527 12.756 173.863 12.06C174.199 11.34 175.135 10.344 176.671 9.072C178.231 7.8 179.371 7.164 180.091 7.164C180.811 7.164 181.939 7.8 183.475 9.072C185.035 10.344 185.983 11.34 186.319 12.06C186.655 12.756 186.823 14.484 186.823 17.244ZM181.819 12.744C181.651 12.408 181.375 12.084 180.991 11.772C180.631 11.46 180.283 11.304 179.947 11.304C179.635 11.304 179.275 11.628 178.867 12.276C178.459 12.9 178.207 13.848 178.111 15.12H182.215C182.143 13.848 182.011 13.056 181.819 12.744ZM203.035 7.596V22.356C203.179 23.196 203.743 23.94 204.727 24.588L201.487 27.36C201.175 27.144 200.791 26.76 200.335 26.208C199.879 25.656 199.495 25.092 199.183 24.516C197.191 26.46 195.799 27.432 195.007 27.432C194.431 27.432 193.495 26.796 192.199 25.524C190.927 24.252 190.135 23.22 189.823 22.428C189.511 21.636 189.355 19.932 189.355 17.316C189.355 14.676 189.511 12.96 189.823 12.168C190.135 11.376 190.927 10.344 192.199 9.072C193.495 7.8 194.431 7.164 195.007 7.164C195.847 7.164 197.203 8.028 199.075 9.756L199.507 7.596H203.035ZM198.031 13.104C197.863 12.792 197.515 12.48 196.987 12.168C196.483 11.832 196.099 11.664 195.835 11.664C195.571 11.664 195.283 11.82 194.971 12.132C194.683 12.444 194.491 12.732 194.395 12.996C194.083 13.428 193.927 14.868 193.927 17.316C193.927 19.74 194.083 21.168 194.395 21.6C194.491 21.84 194.683 22.128 194.971 22.464C195.283 22.776 195.571 22.932 195.835 22.932C196.099 22.932 196.483 22.776 196.987 22.464C197.515 22.128 197.851 21.828 197.995 21.564C198.163 21.3 198.259 19.896 198.283 17.352C198.283 14.808 198.199 13.392 198.031 13.104ZM212.348 11.376V19.332C212.348 20.46 212.732 21.492 213.5 22.428C214.268 23.364 215.324 24.108 216.668 24.66L212.708 27.432C211.268 26.76 210.056 25.836 209.072 24.66C208.088 23.46 207.596 22.2 207.596 20.88V11.376H205.796V8.676L207.596 8.244C207.548 7.068 207.404 6.144 207.164 5.472C206.924 4.776 206.468 4.104 205.796 3.456L209.756 0.684C211.484 2.052 212.348 3.996 212.348 6.516V7.596H216.38V11.376H212.348ZM219.001 7.596H223.753V20.052C223.753 21.276 223.897 22.224 224.185 22.896C224.473 23.568 224.929 24.156 225.553 24.66L221.593 27.432C219.865 26.064 219.001 24.12 219.001 21.6V7.596ZM221.449 0.0719991C221.713 0.0719991 222.301 0.467999 223.213 1.26C224.125 2.028 224.581 2.556 224.581 2.844C224.581 3.108 224.113 3.636 223.177 4.428C222.265 5.22 221.677 5.616 221.413 5.616C221.173 5.616 220.597 5.232 219.685 4.464C218.773 3.672 218.317 3.144 218.317 2.88C218.317 2.592 218.773 2.052 219.685 1.26C220.621 0.467999 221.209 0.0719991 221.449 0.0719991ZM232.453 22.752C232.837 23.112 233.137 23.292 233.353 23.292C233.569 23.292 233.857 23.112 234.217 22.752C234.601 22.392 234.877 22.068 235.045 21.78C235.357 21.252 235.513 19.764 235.513 17.316C235.513 14.868 235.357 13.368 235.045 12.816C234.877 12.528 234.601 12.204 234.217 11.844C233.857 11.484 233.569 11.304 233.353 11.304C233.137 11.304 232.837 11.484 232.453 11.844C232.093 12.204 231.829 12.528 231.661 12.816C231.349 13.344 231.193 14.832 231.193 17.28C231.193 19.728 231.349 21.228 231.661 21.78C231.829 22.068 232.093 22.392 232.453 22.752ZM236.593 25.668C235.129 26.844 234.049 27.432 233.353 27.432C232.657 27.432 231.565 26.844 230.077 25.668C228.613 24.492 227.713 23.616 227.377 23.04C226.873 22.152 226.621 20.232 226.621 17.28C226.621 14.328 226.873 12.42 227.377 11.556C227.713 10.98 228.613 10.104 230.077 8.928C231.565 7.752 232.657 7.164 233.353 7.164C234.049 7.164 235.129 7.752 236.593 8.928C238.081 10.104 238.993 10.98 239.329 11.556C239.833 12.42 240.085 14.328 240.085 17.28C240.085 20.232 239.833 22.152 239.329 23.04C238.993 23.616 238.081 24.492 236.593 25.668ZM248.242 27H243.49V14.58C243.49 13.356 243.346 12.408 243.058 11.736C242.77 11.064 242.314 10.476 241.69 9.972L245.65 7.2C246.538 7.92 247.198 8.748 247.63 9.684C249.406 8.004 250.654 7.164 251.374 7.164C252.118 7.164 253.222 7.836 254.686 9.18C256.174 10.5 256.918 11.808 256.918 13.104V20.052C256.918 21.276 257.062 22.224 257.35 22.896C257.638 23.568 258.094 24.156 258.718 24.66L254.758 27.432C253.03 26.064 252.166 24.12 252.166 21.6V13.608C252.166 13.2 251.95 12.78 251.518 12.348C251.086 11.892 250.678 11.664 250.294 11.664C249.934 11.664 249.25 12.168 248.242 13.176V27ZM273.188 21.168C273.188 21.912 272.264 23.148 270.416 24.876C268.568 26.58 267.188 27.432 266.276 27.432C265.388 27.432 264.272 26.988 262.928 26.1C261.608 25.212 260.624 24.168 259.976 22.968L263.684 20.412C264.884 22.092 265.76 22.932 266.312 22.932C266.72 22.932 267.224 22.728 267.824 22.32C268.424 21.912 268.724 21.528 268.724 21.168C268.724 21.072 268.436 20.868 267.86 20.556C267.284 20.22 266.576 19.812 265.736 19.332C264.92 18.828 264.104 18.276 263.288 17.676C262.472 17.052 261.776 16.296 261.2 15.408C260.624 14.52 260.336 13.62 260.336 12.708C260.336 11.796 261.152 10.644 262.784 9.252C264.416 7.86 265.664 7.164 266.528 7.164C267.416 7.164 268.52 7.608 269.84 8.496C271.184 9.384 272.18 10.428 272.828 11.628L269.12 14.184C267.92 12.504 267.044 11.664 266.492 11.664C266.204 11.664 265.844 11.832 265.412 12.168C265.004 12.48 264.8 12.768 264.8 13.032C264.8 13.296 265.232 13.704 266.096 14.256C266.984 14.808 267.944 15.384 268.976 15.984C270.032 16.56 270.992 17.328 271.856 18.288C272.744 19.224 273.188 20.184 273.188 21.168Z" fill="#07A004"/>
</svg>
